<?xml version="1.0" standalone="no"?>
<!DOCTYPE svg PUBLIC "-//W3C//DTD SVG 20010904//EN"
 "http://www.w3.org/TR/2001/REC-SVG-20010904/DTD/svg10.dtd">
<svg version="1.0" xmlns="http://www.w3.org/2000/svg"
 width="219.000000pt" height="193.000000pt" viewBox="0 0 219.000000 193.000000"
 preserveAspectRatio="xMidYMid meet">

<g transform="translate(0.000000,193.000000) scale(0.100000,-0.100000)"
fill="#000000" stroke="none">
<path d="M1165 1791 c-44 -15 -106 -38 -137 -50 -105 -39 -212 -23 -283 43
-34 32 -59 30 -63 -4 -2 -21 65 -474 84 -562 l6 -28 -132 0 c-120 0 -131 -2
-128 -17 3 -17 39 -18 583 -18 509 0 580 2 580 15 0 12 -22 15 -127 18 -104 2
-128 5 -128 17 0 8 16 128 35 267 20 139 34 266 33 283 -4 45 -52 64 -158 64
-68 1 -101 -5 -165 -28z"/>
<path d="M596 1129 c-39 -11 -46 -24 -46 -91 l0 -58 45 0 c26 0 61 9 86 22 66
34 138 36 202 4 l54 -26 331 0 332 0 0 70 c0 66 -2 71 -25 80 -32 12 -939 11
-979 -1z"/>
<path d="M945 660 c-24 -26 -95 -60 -128 -60 -22 0 -27 -5 -32 -37 -33 -206
-64 -309 -105 -353 -34 -37 -59 -38 -99 -4 l-31 26 0 -40 c0 -25 8 -49 21 -66
l20 -26 493 0 c369 0 495 3 504 12 8 8 12 56 12 148 l0 136 30 29 c29 28 68
110 57 121 -3 3 -14 1 -25 -5 -12 -6 -30 -11 -41 -11 -17 0 -21 6 -21 35 l0
35 -69 0 c-62 0 -74 3 -120 35 -88 59 -154 59 -240 0 -55 -38 -82 -43 -102
-19 -7 8 -34 26 -60 39 -46 24 -47 24 -64 5z"/>
<path d="M550 569 c0 -27 -2 -30 -15 -19 -11 9 -15 9 -15 1 0 -6 7 -28 15 -48
10 -23 15 -68 15 -128 l0 -93 36 -32 c33 -28 38 -30 57 -17 44 27 94 169 111
310 l7 57 -105 0 -106 0 0 -31z"/>
</g>
</svg>
